<?xml version="1.0" encoding="utf-8"?>
<!-- Generator: Adobe Illustrator 21.1.0, SVG Export Plug-In . SVG Version: 6.00 Build 0)  -->
<svg version="1.1" id="Layer_1" xmlns="http://www.w3.org/2000/svg" xmlns:xlink="http://www.w3.org/1999/xlink" x="0px" y="0px"
	 viewBox="0 0 288 108" style="enable-background:new 0 0 288 108;" xml:space="preserve">
<style type="text/css">
	.st0{fill:#00BCD4;}
	.st1{fill:#424242;}
	.st2{font-family:'Aller-Bold';}
	.st3{font-size:51.7258px;}
	.st4{letter-spacing:-1;}
	.st5{font-family:'Aller';}
	.st6{font-size:11.2914px;}
</style>
<path class="st0" d="M49.8,20.1c19.3,0,35,15.7,35,35s-15.7,35-35,35c-3.3,0-6.5-0.5-9.6-1.3L49,64.9c1.1,0.1,2.1,0,3.1-0.2l2.7,7.5
	c-2.2,1.3-3.2,4-2.3,6.5c1,2.8,4.1,4.2,6.9,3.2s4.2-4.1,3.2-6.9c-0.9-2.5-3.4-3.9-5.9-3.5L54,64c1.3-0.6,2.4-1.5,3.3-2.6l8.2,4.7
	c-0.4,1.6,0.2,3.3,1.7,4.2c1.8,1,4.1,0.4,5.2-1.4c1-1.8,0.4-4.1-1.4-5.2c-1.5-0.9-3.3-0.6-4.5,0.6l-8.1-4.7c0.2-0.3,0.3-0.7,0.5-1.1
	c0.4-1.1,0.6-2.2,0.6-3.4l5.5-1c1.1,3.3,4.4,5.3,7.9,4.7c3.8-0.7,6.4-4.3,5.7-8.1c-0.7-3.8-4.3-6.4-8.1-5.7
	c-3.5,0.6-5.9,3.7-5.8,7.1l-5.4,1c-0.4-1.6-1.1-3.1-2.2-4.3l4.3-5.2c2.2,1.2,5.1,0.8,6.8-1.2c1.9-2.3,1.6-5.7-0.7-7.6
	c-2.3-1.9-5.7-1.6-7.6,0.7c-1.7,2-1.6,4.9,0,6.9l-4.3,5.1c-0.7-0.5-1.5-1-2.4-1.3c-0.8-0.3-1.6-0.5-2.4-0.5v-8.2
	c1.6-0.4,2.8-1.9,2.8-3.6c0-2.1-1.7-3.8-3.8-3.8S46,31.8,46,33.9c0,1.7,1.2,3.2,2.8,3.6v8.2c-1.7,0.2-3.4,0.9-4.7,1.9l-3.2-3.8
	c2.3-2.6,2.4-6.5,0.1-9.2c-2.5-3-6.9-3.3-9.9-0.9s-3.3,6.9-0.9,9.9c2.3,2.7,6.1,3.3,9,1.4l3.3,3.9c-0.7,0.8-1.3,1.8-1.7,2.9
	c-0.2,0.5-0.3,1-0.4,1.5l-7-1.2c0-2.5-1.9-4.8-4.4-5.2c-2.9-0.5-5.7,1.4-6.2,4.4c-0.5,2.9,1.4,5.7,4.4,6.2c2.6,0.5,5.1-1,6-3.4
	l7.1,1.3c0,1.6,0.5,3.1,1.2,4.4l-8,4.6c-1.2-1.2-3-1.5-4.5-0.6c-1.8,1-2.4,3.3-1.4,5.1c1,1.8,3.3,2.4,5.1,1.4
	c1.5-0.9,2.2-2.6,1.7-4.2l8.2-4.7c0.7,0.8,1.6,1.5,2.5,2.1l-8.8,23.8C23.6,82,14.7,69.5,14.7,55C14.9,35.8,30.6,20.1,49.8,20.1z"/>
<g>
	<text transform="matrix(1 0 0 1 98.8674 62.676)" class="st1 st2 st3">v</text>
	<text transform="matrix(1 0 0 1 125.9674 62.676)" class="st1 st2 st3 st4">a</text>
	<text transform="matrix(1 0 0 1 150.8674 62.676)" class="st1 st2 st3">l</text>
	<text transform="matrix(1 0 0 1 166.6675 62.676)" class="st1 st2 st3 st4">en</text>
	<text transform="matrix(1 0 0 1 221.9674 62.676)" class="st1 st2 st3">ce</text>
	<text transform="matrix(1 0 0 1 98.8674 78.6942)" class="st5 st6">NATIVE SALESFORCE INTEGRATION</text>
</g>
</svg>
